<mxfile host="app.diagrams.net" agent="Mozilla/5.0 (Windows NT 10.0; Win64; x64) AppleWebKit/537.36 (KHTML, like Gecko) Chrome/136.0.0.0 Safari/537.36" version="27.0.8">
  <diagram name="第 1 页" id="GwI5qLp5DQUhe-dV5kQD">
    <mxGraphModel dx="786" dy="417" grid="1" gridSize="10" guides="1" tooltips="1" connect="1" arrows="1" fold="1" page="1" pageScale="1" pageWidth="827" pageHeight="1169" math="0" shadow="0">
      <root>
        <mxCell id="0" />
        <mxCell id="1" parent="0" />
        <mxCell id="DtaT2oUnTQ2vNSEaPgm_-1" value="main" style="rounded=0;whiteSpace=wrap;html=1;fillColor=#1ba1e2;fontColor=#ffffff;strokeColor=#006EAF;" parent="1" vertex="1">
          <mxGeometry x="135" y="550" width="80" height="40" as="geometry" />
        </mxCell>
        <mxCell id="N_M-BEv-kXVrNf7djDiC-1" value="bug" style="rounded=0;whiteSpace=wrap;html=1;fillColor=#fa6800;fontColor=#000000;strokeColor=#C73500;" vertex="1" parent="1">
          <mxGeometry x="245" y="550" width="80" height="40" as="geometry" />
        </mxCell>
        <mxCell id="N_M-BEv-kXVrNf7djDiC-2" value="development" style="rounded=0;whiteSpace=wrap;html=1;fillColor=#6a00ff;fontColor=#ffffff;strokeColor=#3700CC;" vertex="1" parent="1">
          <mxGeometry x="360" y="550" width="80" height="40" as="geometry" />
        </mxCell>
        <mxCell id="N_M-BEv-kXVrNf7djDiC-4" value="" style="endArrow=none;html=1;rounded=0;" edge="1" parent="1" target="N_M-BEv-kXVrNf7djDiC-5">
          <mxGeometry width="50" height="50" relative="1" as="geometry">
            <mxPoint x="160" y="680" as="sourcePoint" />
            <mxPoint x="530" y="680" as="targetPoint" />
          </mxGeometry>
        </mxCell>
        <mxCell id="N_M-BEv-kXVrNf7djDiC-5" value="" style="ellipse;whiteSpace=wrap;html=1;aspect=fixed;fillColor=#1ba1e2;fontColor=#ffffff;strokeColor=#006EAF;" vertex="1" parent="1">
          <mxGeometry x="140" y="668" width="25" height="25" as="geometry" />
        </mxCell>
        <mxCell id="N_M-BEv-kXVrNf7djDiC-7" value="" style="endArrow=none;html=1;rounded=0;entryX=0;entryY=0.5;entryDx=0;entryDy=0;" edge="1" parent="1" target="N_M-BEv-kXVrNf7djDiC-8">
          <mxGeometry width="50" height="50" relative="1" as="geometry">
            <mxPoint x="165" y="680.5" as="sourcePoint" />
            <mxPoint x="350" y="680" as="targetPoint" />
          </mxGeometry>
        </mxCell>
        <mxCell id="N_M-BEv-kXVrNf7djDiC-8" value="" style="ellipse;whiteSpace=wrap;html=1;aspect=fixed;fillColor=#1ba1e2;fontColor=#ffffff;strokeColor=#006EAF;" vertex="1" parent="1">
          <mxGeometry x="495" y="668" width="25" height="25" as="geometry" />
        </mxCell>
        <mxCell id="N_M-BEv-kXVrNf7djDiC-11" value="" style="ellipse;whiteSpace=wrap;html=1;aspect=fixed;fillColor=#fa6800;fontColor=#000000;strokeColor=#C73500;" vertex="1" parent="1">
          <mxGeometry x="190" y="710" width="25" height="25" as="geometry" />
        </mxCell>
        <mxCell id="N_M-BEv-kXVrNf7djDiC-13" value="" style="endArrow=none;html=1;rounded=0;" edge="1" parent="1" target="N_M-BEv-kXVrNf7djDiC-12">
          <mxGeometry width="50" height="50" relative="1" as="geometry">
            <mxPoint x="150" y="760" as="sourcePoint" />
            <mxPoint x="530" y="760" as="targetPoint" />
          </mxGeometry>
        </mxCell>
        <mxCell id="N_M-BEv-kXVrNf7djDiC-12" value="" style="ellipse;whiteSpace=wrap;html=1;aspect=fixed;fillColor=#6a00ff;fontColor=#ffffff;strokeColor=#3700CC;" vertex="1" parent="1">
          <mxGeometry x="140" y="750" width="25" height="25" as="geometry" />
        </mxCell>
        <mxCell id="N_M-BEv-kXVrNf7djDiC-15" value="" style="endArrow=none;html=1;rounded=0;" edge="1" parent="1" source="N_M-BEv-kXVrNf7djDiC-12" target="N_M-BEv-kXVrNf7djDiC-14">
          <mxGeometry width="50" height="50" relative="1" as="geometry">
            <mxPoint x="165" y="762" as="sourcePoint" />
            <mxPoint x="530" y="760" as="targetPoint" />
          </mxGeometry>
        </mxCell>
        <mxCell id="N_M-BEv-kXVrNf7djDiC-14" value="" style="ellipse;whiteSpace=wrap;html=1;aspect=fixed;fillColor=#6a00ff;fontColor=#ffffff;strokeColor=#3700CC;" vertex="1" parent="1">
          <mxGeometry x="215" y="750" width="25" height="25" as="geometry" />
        </mxCell>
        <mxCell id="N_M-BEv-kXVrNf7djDiC-17" value="" style="endArrow=none;html=1;rounded=0;" edge="1" parent="1" source="N_M-BEv-kXVrNf7djDiC-14" target="N_M-BEv-kXVrNf7djDiC-16">
          <mxGeometry width="50" height="50" relative="1" as="geometry">
            <mxPoint x="240" y="762" as="sourcePoint" />
            <mxPoint x="530" y="760" as="targetPoint" />
          </mxGeometry>
        </mxCell>
        <mxCell id="N_M-BEv-kXVrNf7djDiC-16" value="" style="ellipse;whiteSpace=wrap;html=1;aspect=fixed;fillColor=#6a00ff;fontColor=#ffffff;strokeColor=#3700CC;" vertex="1" parent="1">
          <mxGeometry x="300" y="750" width="25" height="25" as="geometry" />
        </mxCell>
        <mxCell id="N_M-BEv-kXVrNf7djDiC-19" value="" style="endArrow=none;html=1;rounded=0;" edge="1" parent="1" source="N_M-BEv-kXVrNf7djDiC-16" target="N_M-BEv-kXVrNf7djDiC-18">
          <mxGeometry width="50" height="50" relative="1" as="geometry">
            <mxPoint x="325" y="762" as="sourcePoint" />
            <mxPoint x="530" y="760" as="targetPoint" />
          </mxGeometry>
        </mxCell>
        <mxCell id="N_M-BEv-kXVrNf7djDiC-18" value="" style="ellipse;whiteSpace=wrap;html=1;aspect=fixed;fillColor=#6a00ff;fontColor=#ffffff;strokeColor=#3700CC;" vertex="1" parent="1">
          <mxGeometry x="455" y="750" width="25" height="25" as="geometry" />
        </mxCell>
        <mxCell id="N_M-BEv-kXVrNf7djDiC-20" value="fork" style="rounded=0;whiteSpace=wrap;html=1;fillColor=#60a917;fontColor=#ffffff;strokeColor=#2D7600;" vertex="1" parent="1">
          <mxGeometry x="480" y="550" width="80" height="40" as="geometry" />
        </mxCell>
        <mxCell id="N_M-BEv-kXVrNf7djDiC-21" value="" style="ellipse;whiteSpace=wrap;html=1;aspect=fixed;fillColor=#60a917;fontColor=#ffffff;strokeColor=#2D7600;" vertex="1" parent="1">
          <mxGeometry x="230" y="810" width="25" height="25" as="geometry" />
        </mxCell>
        <mxCell id="N_M-BEv-kXVrNf7djDiC-23" value="" style="endArrow=none;html=1;rounded=0;entryX=0;entryY=0.5;entryDx=0;entryDy=0;exitX=0.5;exitY=1;exitDx=0;exitDy=0;edgeStyle=orthogonalEdgeStyle;curved=1;" edge="1" parent="1" source="N_M-BEv-kXVrNf7djDiC-12" target="N_M-BEv-kXVrNf7djDiC-21">
          <mxGeometry width="50" height="50" relative="1" as="geometry">
            <mxPoint x="160" y="860" as="sourcePoint" />
            <mxPoint x="210" y="810" as="targetPoint" />
          </mxGeometry>
        </mxCell>
        <mxCell id="N_M-BEv-kXVrNf7djDiC-24" value="" style="endArrow=none;html=1;rounded=0;exitX=1;exitY=0.5;exitDx=0;exitDy=0;edgeStyle=orthogonalEdgeStyle;curved=1;" edge="1" parent="1" source="N_M-BEv-kXVrNf7djDiC-21">
          <mxGeometry width="50" height="50" relative="1" as="geometry">
            <mxPoint x="270" y="850" as="sourcePoint" />
            <mxPoint x="350" y="760" as="targetPoint" />
          </mxGeometry>
        </mxCell>
        <mxCell id="N_M-BEv-kXVrNf7djDiC-26" value="" style="endArrow=none;html=1;rounded=0;edgeStyle=orthogonalEdgeStyle;curved=1;entryX=0.5;entryY=1;entryDx=0;entryDy=0;exitX=0;exitY=1;exitDx=0;exitDy=0;" edge="1" parent="1" source="N_M-BEv-kXVrNf7djDiC-11" target="N_M-BEv-kXVrNf7djDiC-5">
          <mxGeometry width="50" height="50" relative="1" as="geometry">
            <mxPoint x="160" y="740" as="sourcePoint" />
            <mxPoint x="210" y="690" as="targetPoint" />
          </mxGeometry>
        </mxCell>
        <mxCell id="N_M-BEv-kXVrNf7djDiC-27" value="" style="endArrow=none;html=1;rounded=0;edgeStyle=orthogonalEdgeStyle;curved=1;entryX=1;entryY=0.5;entryDx=0;entryDy=0;" edge="1" parent="1" target="N_M-BEv-kXVrNf7djDiC-11">
          <mxGeometry width="50" height="50" relative="1" as="geometry">
            <mxPoint x="270" y="760" as="sourcePoint" />
            <mxPoint x="310" y="730" as="targetPoint" />
            <Array as="points">
              <mxPoint x="270" y="723" />
            </Array>
          </mxGeometry>
        </mxCell>
        <mxCell id="N_M-BEv-kXVrNf7djDiC-29" value="" style="endArrow=none;html=1;rounded=0;edgeStyle=orthogonalEdgeStyle;curved=1;entryX=0.5;entryY=1;entryDx=0;entryDy=0;" edge="1" parent="1" target="N_M-BEv-kXVrNf7djDiC-8">
          <mxGeometry width="50" height="50" relative="1" as="geometry">
            <mxPoint x="480" y="761" as="sourcePoint" />
            <mxPoint x="486" y="700" as="targetPoint" />
          </mxGeometry>
        </mxCell>
        <mxCell id="N_M-BEv-kXVrNf7djDiC-31" value="" style="endArrow=none;html=1;rounded=0;edgeStyle=orthogonalEdgeStyle;curved=1;exitX=1;exitY=0.5;exitDx=0;exitDy=0;" edge="1" parent="1" source="N_M-BEv-kXVrNf7djDiC-11">
          <mxGeometry width="50" height="50" relative="1" as="geometry">
            <mxPoint x="210" y="730" as="sourcePoint" />
            <mxPoint x="260" y="680" as="targetPoint" />
          </mxGeometry>
        </mxCell>
        <mxCell id="N_M-BEv-kXVrNf7djDiC-32" value="1.0" style="rounded=0;whiteSpace=wrap;html=1;fillColor=#1ba1e2;fontColor=#ffffff;strokeColor=#006EAF;" vertex="1" parent="1">
          <mxGeometry x="495" y="610" width="30" height="20" as="geometry" />
        </mxCell>
        <mxCell id="N_M-BEv-kXVrNf7djDiC-34" value="" style="endArrow=classic;html=1;rounded=0;" edge="1" parent="1">
          <mxGeometry width="50" height="50" relative="1" as="geometry">
            <mxPoint x="509.5" y="630" as="sourcePoint" />
            <mxPoint x="509.5" y="660" as="targetPoint" />
          </mxGeometry>
        </mxCell>
        <mxCell id="N_M-BEv-kXVrNf7djDiC-35" value="" style="shape=table;startSize=0;container=1;collapsible=0;childLayout=tableLayout;fontSize=16;" vertex="1" parent="1">
          <mxGeometry x="130" y="850" width="407.5" height="80" as="geometry" />
        </mxCell>
        <mxCell id="N_M-BEv-kXVrNf7djDiC-40" value="" style="shape=tableRow;horizontal=0;startSize=0;swimlaneHead=0;swimlaneBody=0;strokeColor=inherit;top=0;left=0;bottom=0;right=0;collapsible=0;dropTarget=0;fillColor=none;points=[[0,0.5],[1,0.5]];portConstraint=eastwest;fontSize=16;" vertex="1" parent="N_M-BEv-kXVrNf7djDiC-35">
          <mxGeometry width="407.5" height="40" as="geometry" />
        </mxCell>
        <mxCell id="N_M-BEv-kXVrNf7djDiC-41" value="" style="shape=partialRectangle;html=1;whiteSpace=wrap;connectable=0;strokeColor=inherit;overflow=hidden;fillColor=none;top=0;left=0;bottom=0;right=0;pointerEvents=1;fontSize=16;" vertex="1" parent="N_M-BEv-kXVrNf7djDiC-40">
          <mxGeometry width="136" height="40" as="geometry">
            <mxRectangle width="136" height="40" as="alternateBounds" />
          </mxGeometry>
        </mxCell>
        <mxCell id="N_M-BEv-kXVrNf7djDiC-42" value="" style="shape=partialRectangle;html=1;whiteSpace=wrap;connectable=0;strokeColor=inherit;overflow=hidden;fillColor=none;top=0;left=0;bottom=0;right=0;pointerEvents=1;fontSize=16;" vertex="1" parent="N_M-BEv-kXVrNf7djDiC-40">
          <mxGeometry x="136" width="136" height="40" as="geometry">
            <mxRectangle width="136" height="40" as="alternateBounds" />
          </mxGeometry>
        </mxCell>
        <mxCell id="N_M-BEv-kXVrNf7djDiC-43" value="" style="shape=partialRectangle;html=1;whiteSpace=wrap;connectable=0;strokeColor=inherit;overflow=hidden;fillColor=none;top=0;left=0;bottom=0;right=0;pointerEvents=1;fontSize=16;" vertex="1" parent="N_M-BEv-kXVrNf7djDiC-40">
          <mxGeometry x="272" width="136" height="40" as="geometry">
            <mxRectangle width="136" height="40" as="alternateBounds" />
          </mxGeometry>
        </mxCell>
        <mxCell id="N_M-BEv-kXVrNf7djDiC-44" value="" style="shape=tableRow;horizontal=0;startSize=0;swimlaneHead=0;swimlaneBody=0;strokeColor=inherit;top=0;left=0;bottom=0;right=0;collapsible=0;dropTarget=0;fillColor=none;points=[[0,0.5],[1,0.5]];portConstraint=eastwest;fontSize=16;" vertex="1" parent="N_M-BEv-kXVrNf7djDiC-35">
          <mxGeometry y="40" width="407.5" height="40" as="geometry" />
        </mxCell>
        <mxCell id="N_M-BEv-kXVrNf7djDiC-45" value="" style="shape=partialRectangle;html=1;whiteSpace=wrap;connectable=0;strokeColor=inherit;overflow=hidden;fillColor=none;top=0;left=0;bottom=0;right=0;pointerEvents=1;fontSize=16;" vertex="1" parent="N_M-BEv-kXVrNf7djDiC-44">
          <mxGeometry width="136" height="40" as="geometry">
            <mxRectangle width="136" height="40" as="alternateBounds" />
          </mxGeometry>
        </mxCell>
        <mxCell id="N_M-BEv-kXVrNf7djDiC-46" value="" style="shape=partialRectangle;html=1;whiteSpace=wrap;connectable=0;strokeColor=inherit;overflow=hidden;fillColor=none;top=0;left=0;bottom=0;right=0;pointerEvents=1;fontSize=16;" vertex="1" parent="N_M-BEv-kXVrNf7djDiC-44">
          <mxGeometry x="136" width="136" height="40" as="geometry">
            <mxRectangle width="136" height="40" as="alternateBounds" />
          </mxGeometry>
        </mxCell>
        <mxCell id="N_M-BEv-kXVrNf7djDiC-47" value="" style="shape=partialRectangle;html=1;whiteSpace=wrap;connectable=0;strokeColor=inherit;overflow=hidden;fillColor=none;top=0;left=0;bottom=0;right=0;pointerEvents=1;fontSize=16;" vertex="1" parent="N_M-BEv-kXVrNf7djDiC-44">
          <mxGeometry x="272" width="136" height="40" as="geometry">
            <mxRectangle width="136" height="40" as="alternateBounds" />
          </mxGeometry>
        </mxCell>
      </root>
    </mxGraphModel>
  </diagram>
</mxfile>
